<svg width="1024" height="1024" viewBox="0 0 1024 1024" fill="transparent" xmlns="http://www.w3.org/2000/svg">
  <rect width="1024" height="1024" rx="224" fill="#1E1E1E"/>
  <g transform="translate(138 323) scale(0.263708399)">
    <path d="M99.4999 102.5C70.8088 102.5 39.0636 114.645 29.4999 137C22.3271 150.04 22.3272 182.097 29.5 197L653.285 1280.02C667.63 1304.23 722.636 1357.5 758.5 1357.5H887.5C923.364 1357.5 983.233 1304.23 997.579 1278.15L1369.5 458.476C1383.85 428.669 1384.91 397 1344.26 397H1141.03C1114.73 397 1066.06 437.984 1056.5 458.476L827.823 974.5C818.259 994.992 782.395 994.992 772.831 974.5L353.5 163.5C341.545 135.556 302.255 102.5 264 102.5H99.4999Z" fill="#0667D8"/>
    <path fill-rule="evenodd" clip-rule="evenodd" d="M1738.3 27.5822C1444.63 16.2936 1210.65 148.614 1085.93 388.764C1043.65 470.044 1012.25 563.046 988.016 665.745C980.51 701.256 1021.24 727.316 1051.07 703.968C1128.73 641.007 1155.02 600.016 1255.5 577.5C1276.76 572.665 1328.34 544.893 1337 524.5C1410.2 359.621 1568.68 286.733 1747.93 293.623C1868.07 298.241 1976.6 343.866 2058.65 422.388C2078.69 442 2111.2 441.365 2131.31 421.412L2247.92 305.306C2268.03 285.353 2267.72 253.31 2245.68 235.505C2110.68 107.843 1938.53 35.2791 1738.3 27.5822Z" fill="#0667D8"/>
    <path fill-rule="evenodd" clip-rule="evenodd" d="M1648.86 624.476C1627.13 624.863 1609.54 641.974 1610.01 668.039L1610.01 814.516C1610.48 840.581 1627.13 859.839 1648.86 859.452L2028.16 859.459C2049.89 859.072 2066.66 874.162 2067.13 900.227L2067.13 1027.34C2067.6 1053.4 1983.09 1112.06 1963.36 1123.27C1898.79 1159.19 1826.67 1177.85 1746.99 1179.27C1614.79 1181.63 1499.81 1133.7 1409.52 1048.4C1385.59 1027.1 1353.18 1038.54 1344.72 1071.28L1266.87 1231.5C1260.1 1257.69 1267.41 1286.85 1289.37 1299.5C1412.11 1375.53 1583.3 1445.09 1742.65 1442.25C1992.56 1437.8 2186.38 1336.57 2310.02 1160.55C2322.39 1142.95 2329.2 1118.93 2328.77 1095.03L2328.76 668.054C2328.3 641.989 2307.66 624.101 2285.93 624.488L1648.86 624.476Z" fill="#0667D8"/>
    <path d="M675 1152C744.861 1238.17 889.089 1243.67 963.457 1163" stroke="#19C9C4" stroke-width="54" stroke-linecap="round"/>
    <path fill-rule="evenodd" clip-rule="evenodd" d="M2543.39 606.011L2764.72 440.243C2792.59 420.289 2830.3 438.708 2830.3 472.476V1046.52C2830.3 1080.29 2792.59 1098.71 2764.72 1078.76L2543.39 912.989C2533.56 905.315 2527 894.57 2527 882.291V636.709C2527 624.43 2533.56 613.686 2543.39 606.011Z" fill="#0667D8"/>
  </g>
</svg>
