<svg width="1024" height="1024" viewBox="0 0 1024 1024" fill="none" xmlns="http://www.w3.org/2000/svg">
  <rect width="1024" height="1024" rx="224" fill="#1E1E1E"/>
  <g transform="translate(46 234) scale(0.337)">
    <path d="M138.5 348C112.298 348 92.6468 362.034 83.9128 386.092C77.3624 400.126 77.3624 418.169 83.9128 434.208L636.334 1546.89C649.434 1572.96 677.82 1591 710.572 1591H876.517C909.269 1591 937.654 1572.96 950.755 1544.89L1317.58 662.76C1330.68 630.682 1304.48 596.6 1267.36 596.6H1081.76C1057.75 596.6 1035.91 610.634 1027.18 632.687L795.728 1218.1C786.994 1240.15 754.242 1240.15 745.508 1218.1L428.903 398.121C417.985 368.048 389.6 348 354.665 348H138.5Z" fill="#0667D8"/>
    <path fill-rule="evenodd" clip-rule="evenodd" d="M1582.47 297.582C1324.92 286.294 1119.72 418.614 1010.33 658.764C973.255 740.044 945.72 833.046 924.462 935.745C917.879 971.256 953.601 997.316 979.759 973.968C1047.87 911.007 1125.27 865.41 1213.39 842.894C1232.03 838.059 1247.75 823.674 1255.34 803.281C1319.54 638.402 1433.71 556.733 1590.92 563.623C1696.28 568.241 1791.47 613.866 1863.43 692.388C1881.01 712 1909.52 711.365 1927.15 691.412L2029.43 575.306C2047.06 555.353 2046.79 523.31 2027.46 505.505C1909.06 377.843 1758.08 305.279 1582.47 297.582Z" fill="#0667D8"/>
    <path fill-rule="evenodd" clip-rule="evenodd" d="M1499.67 844.864C1481.21 845.181 1467.65 862.681 1468.05 885.696L1471.54 1089C1471.94 1112.01 1486.08 1129.04 1504.55 1128.72L1763.09 1124.28C1781.56 1123.96 1795.71 1140.98 1796.1 1164L1798.61 1309.76C1799.01 1332.78 1788.56 1352.14 1771.8 1362.02C1716.92 1393.66 1655.63 1410.06 1587.92 1411.23C1475.57 1413.16 1377.86 1370.71 1301.13 1295.29C1280.8 1276.45 1253.26 1286.52 1246.06 1315.42L1201.22 1483.1C1195.46 1506.22 1203.62 1532.94 1222.28 1544.13C1326.58 1611.41 1448.78 1645.76 1584.21 1643.43C1796.58 1639.78 1961.31 1550.62 2066.4 1395.33C2076.91 1379.8 2082.7 1358.6 2082.34 1337.5L2074.39 875.277C2074 852.262 2059.85 835.238 2041.38 835.555L1499.67 844.864Z" fill="#0667D8"/>
    <path d="M669 1422C730.269 1508.17 856.761 1513.67 921.983 1433" stroke="#19C9C4" stroke-width="34" stroke-linecap="round"/>
    <path fill-rule="evenodd" clip-rule="evenodd" d="M2258.38 794.011L2452.49 628.243C2476.93 608.289 2510 626.708 2510 660.476V1234.52C2510 1268.29 2476.93 1286.71 2452.49 1266.76L2258.38 1100.99C2249.75 1093.31 2244 1082.57 2244 1070.29V824.709C2244 812.43 2249.75 801.685 2258.38 794.011Z" fill="#0667D8"/>
  </g>
</svg>
