<svg width="1024" height="1024" viewBox="0 0 1024 1024" fill="transparent" xmlns="http://www.w3.org/2000/svg">
  <rect width="1024" height="1024" rx="224" fill="#1E1E1E"/>
  <g transform="translate(138 323) scale(0.263708399)">
    <path d="M99.4999 102.5C70.8088 102.5 39.0636 114.645 29.4999 137C22.3271 150.04 22.3272 182.097 29.5 197L653.285 1280.02C667.63 1304.23 722.636 1357.5 758.5 1357.5H887.5C923.364 1357.5 983.233 1304.23 997.579 1278.15L1369.5 458.476C1383.85 428.669 1384.91 397 1344.26 397H1141.03C1114.73 397 1066.06 437.984 1056.5 458.476L827.823 974.5C818.259 994.992 782.395 994.992 772.831 974.5L353.5 163.5C341.545 135.556 302.255 102.5 264 102.5H99.4999Z" fill="#0667D8"/>
    <path fill-rule="evenodd" clip-rule="evenodd" d="M1738.3 27.5822C1444.63 16.2936 1210.65 148.614 1085.93 388.764C1043.65 470.044 1012.25 563.046 988.016 665.745C980.51 701.256 1021.24 727.316 1051.07 703.968C1128.73 641.007 1155.02 600.016 1255.5 577.5C1276.76 572.665 1328.34 544.893 1337 524.5C1410.2 359.621 1568.68 286.733 1747.93 293.623C1868.07 298.241 1976.6 343.866 2058.65 422.388C2078.69 442 2111.2 441.365 2131.31 421.412L2247.92 305.306C2268.03 285.353 2267.72 253.31 2245.68 235.505C2110.68 107.843 1938.53 35.2791 1738.3 27.5822Z" fill="#0667D8"/>
    <path fill-rule="evenodd" clip-rule="evenodd" d="M1666.48 596.476C1644.75 596.863 1627.17 613.974 1627.64 640.039L1627.64 786.516C1628.11 812.581 1644.76 831.839 1666.49 831.452L2045.79 831.459C2067.52 831.072 2084.28 846.162 2084.75 872.227L2084.75 999.335C2085.22 1025.4 2000.71 1084.06 1980.99 1095.27C1916.42 1131.19 1844.29 1149.85 1764.61 1151.27C1632.42 1153.63 1517.44 1105.7 1427.14 1020.4C1403.21 999.099 1370.81 1010.54 1362.34 1043.28L1284.5 1203.5C1277.72 1229.69 1285.04 1258.85 1307 1271.5C1429.73 1347.53 1600.92 1417.09 1760.28 1414.25C2010.18 1409.8 2204 1308.57 2327.65 1132.55C2340.01 1114.95 2346.83 1090.93 2346.4 1067.03L2346.39 640.054C2345.92 613.989 2325.29 596.101 2303.56 596.488L1666.48 596.476Z" fill="#0667D8"/>
    <path d="M675 1152C744.861 1238.17 889.089 1243.67 963.457 1163" stroke="#19C9C4" stroke-width="54" stroke-linecap="round"/>
    <path fill-rule="evenodd" clip-rule="evenodd" d="M2503.39 590.011L2724.72 424.243C2752.59 404.289 2790.3 422.708 2790.3 456.476V1030.52C2790.3 1064.29 2752.59 1082.71 2724.72 1062.76L2503.39 896.989C2493.56 889.315 2487 878.57 2487 866.291V620.709C2487 608.43 2493.56 597.686 2503.39 590.011Z" fill="#0667D8"/>
  </g>
</svg>
